<svg width="14" height="13" viewBox="0 0 14 13" fill="none" xmlns="http://www.w3.org/2000/svg">
<path d="M8.86423 12.5229C8.76346 12.4892 8.66782 12.4417 8.58003 12.3818C7.55016 11.4175 6.35592 10.6854 5.18581 9.91427C4.48156 9.45391 3.7923 8.97609 3.1097 8.4832C2.13619 7.78111 1.38771 6.81035 0.955577 5.68936C0.463936 4.43279 0.628735 3.20552 1.30216 2.05771C1.48875 1.76286 1.7385 1.5133 2.03329 1.32712C2.6216 0.935037 3.30755 0.715406 4.0138 0.692986C4.81929 0.66889 5.54998 0.831396 6.06056 1.5303C6.1432 1.64362 6.23812 1.74742 6.34358 1.8398C6.74059 2.18547 7.20874 2.17431 7.52651 1.74853C8.09483 0.983514 8.85198 0.515171 9.72867 0.20941C10.587 -0.0894583 11.3933 0.00826962 12.1243 0.53451C12.5031 0.787154 12.8417 1.09578 13.1283 1.44992C14.0365 2.67281 14.2802 3.88745 13.3695 5.24506C12.784 6.11577 12.1579 6.96444 11.4913 7.77351C10.3857 9.11507 9.48412 10.5532 9.02812 12.2507C8.98599 12.3484 8.93086 12.44 8.86423 12.5229Z" fill="#FF0F82"/>
</svg>
